<svg width="22" height="20" viewBox="0 0 22 20" fill="none" xmlns="http://www.w3.org/2000/svg">
<path d="M8.98398 4.06001C9.38965 3.28744 9.94672 2.60445 10.622 2.05176C11.2973 1.49908 12.0769 1.08802 12.9144 0.843092C13.7519 0.598163 14.6302 0.524377 15.4969 0.626134C16.3635 0.727891 17.2008 1.00311 17.9588 1.43538C18.7168 1.86765 19.3801 2.44812 19.9089 3.14218C20.4378 3.83625 20.8215 4.6297 21.0372 5.47523C21.2529 6.32077 21.2961 7.20107 21.1643 8.06366C21.0325 8.92626 20.7283 9.75348 20.27 10.496C21.0721 11.2514 21.6288 12.2302 21.8681 13.3058C22.1073 14.3813 22.018 15.5038 21.6118 16.528C21.2055 17.5522 20.501 18.4307 19.5896 19.0498C18.6781 19.6688 17.6018 19.9999 16.5 20L7.99998 19.999C6.9084 19.9982 5.82854 19.774 4.82685 19.3402C3.82517 18.9064 2.92285 18.2722 2.17545 17.4766C1.42804 16.681 0.851354 15.7409 0.480881 14.7141C0.110408 13.6874 -0.0460142 12.5956 0.0212427 11.5061C0.0884997 10.4166 0.378012 9.35238 0.871962 8.37895C1.36591 7.40552 2.05385 6.54348 2.89343 5.84587C3.73301 5.14827 4.70648 4.62986 5.75391 4.32257C6.80134 4.01527 7.90059 3.92658 8.98398 4.06001ZM11.055 4.60401C12.0538 5.01804 12.9587 5.62962 13.7153 6.40205C14.472 7.17448 15.0647 8.09182 15.458 9.09901C16.5058 8.89818 17.5894 9.0048 18.578 9.40601C19.0415 8.41677 19.1294 7.29268 18.8252 6.24343C18.521 5.19417 17.8454 4.29142 16.9246 3.70357C16.0038 3.11572 14.9006 2.88292 13.8207 3.04861C12.7409 3.21429 11.7572 3.76714 11.055 4.60401ZM16.5 18C17.077 17.9999 17.6451 17.8572 18.1536 17.5845C18.6621 17.3118 19.0954 16.9175 19.4147 16.4369C19.734 15.9563 19.9296 15.4042 19.9839 14.8297C20.0383 14.2552 19.9497 13.6762 19.7262 13.1442C19.5027 12.6123 19.1511 12.1438 18.7028 11.7805C18.2544 11.4173 17.7232 11.1705 17.1564 11.0622C16.5896 10.9539 16.0049 10.9874 15.4542 11.1598C14.9194 11.3271 14.4328 11.6204 14.0352 12.0146C14.0222 12.0274 14 12.0183 14 12C14 10.8133 13.6481 9.65329 12.9888 8.66659C12.3295 7.6799 11.3924 6.91086 10.2961 6.45674C9.19973 6.00261 7.99333 5.88379 6.82944 6.1153C5.66555 6.34681 4.59646 6.91826 3.75734 7.75737C2.91823 8.59649 2.34678 9.66559 2.11527 10.8295C1.88376 11.9934 2.00258 13.1998 2.4567 14.2961C2.91083 15.3925 3.67987 16.3295 4.66656 16.9888C5.65325 17.6481 6.81329 18 7.99998 18H16.5Z" fill="#272727"/>
</svg>
